# Blender v3.4.1 OBJ File: ''
# www.blender.org
o Lights.005
v 0.519383 14.098101 0.399749
v 0.474254 14.073765 0.435455
v 0.516022 14.081877 0.399291
v 0.551549 14.089989 0.361983
v 0.551069 14.106212 0.368163
v 0.564031 14.114325 0.354888
v 0.557310 14.089989 0.355117
v 0.579394 14.114325 0.337951
v 0.567392 14.065653 0.335662
v 0.550109 14.065653 0.355117
v 0.561631 14.057541 0.339553
v 0.542907 14.041317 0.354201
v 0.513621 14.025093 0.379607
v 0.513621 14.033206 0.382812
v 0.452650 14.000758 0.417602
v -0.494095 14.025093 0.379607
v -0.433123 14.000758 0.417602
v -0.493855 14.033206 0.382812
v -0.530582 14.065653 0.355117
v -0.523381 14.041317 0.354201
v -0.542104 14.057541 0.339553
v -0.547865 14.065653 0.335662
v -0.537303 14.089989 0.355117
v -0.559868 14.114325 0.337951
v -0.544505 14.114325 0.354888
v -0.532022 14.089989 0.361983
v -0.531542 14.106212 0.368163
v -0.499856 14.098101 0.399749
v -0.496495 14.081877 0.399291
v -0.454727 14.073765 0.435455
vt 0.470215 0.796021
vt 0.148315 0.648193
vt 0.460693 0.713867
vt 0.757813 0.758179
vt 0.727051 0.881470
vt 0.833984 0.911560
vt 0.807617 0.760498
vt 0.965332 0.915039
vt 0.931641 0.604492
vt 0.780762 0.576904
vt 0.893555 0.546631
vt 0.759766 0.434082
vt 0.540039 0.298340
vt 0.524414 0.369629
vt 0.147827 0.101074
vt 0.540039 0.298340
vt 0.147827 0.101074
vt 0.524414 0.369629
vt 0.780762 0.576904
vt 0.759766 0.434082
vt 0.893555 0.546631
vt 0.931641 0.604492
vt 0.807617 0.760498
vt 0.965332 0.915039
vt 0.833984 0.911560
vt 0.757813 0.758179
vt 0.727051 0.881470
vt 0.470215 0.796021
vt 0.460693 0.713867
vt 0.148315 0.648193
vn 0.6637 -0.1581 0.7311
vn 0.7319 -0.1702 0.6598
vn 0.7160 -0.2299 0.6592
vn 0.7608 -0.2113 0.6137
vn 0.7503 -0.2013 0.6297
vn 0.7266 -0.1945 0.6590
vn 0.7343 -0.2114 0.6450
vn 0.7300 -0.2160 0.6485
vn 0.7312 -0.2077 0.6497
vn 0.7177 -0.2370 0.6548
vn 0.7079 -0.2346 0.6662
vn 0.7184 -0.2556 0.6470
vn 0.5877 -0.2973 0.7525
vn -0.5862 -0.2827 0.7593
vn -0.7107 -0.2402 0.6612
vn -0.7079 -0.2345 0.6662
vn -0.7177 -0.2370 0.6548
vn -0.7312 -0.2077 0.6497
vn -0.7322 -0.2022 0.6504
vn -0.7251 -0.2097 0.6559
vn -0.7245 -0.2082 0.6571
vn -0.7727 -0.2231 0.5943
vn -0.7608 -0.2113 0.6137
vn -0.7160 -0.2299 0.6592
vn -0.7318 -0.1702 0.6599
vn -0.6637 -0.1581 0.7311
s off
f 1/1/1 2/2/1 3/3/1
f 1/1/2 3/3/2 4/4/2
f 5/5/3 1/1/3 4/4/3
f 6/6/4 5/5/4 4/4/4
f 4/4/5 7/7/5 6/6/5
f 6/6/6 7/7/6 8/8/6
f 9/9/7 8/8/7 7/7/7
f 7/7/8 10/10/8 9/9/8
f 11/11/9 9/9/9 10/10/9
f 12/12/10 11/11/10 10/10/10
f 13/13/11 12/12/11 10/10/11
f 10/10/12 14/14/12 13/13/12
f 13/13/13 14/14/13 15/15/13
f 16/16/14 17/17/14 18/18/14
f 16/16/15 18/18/15 19/19/15
f 19/19/16 20/20/16 16/16/16
f 20/20/17 19/19/17 21/21/17
f 21/21/18 19/19/18 22/22/18
f 22/22/19 19/19/19 23/23/19
f 23/23/20 24/24/20 22/22/20
f 25/25/21 24/24/21 23/23/21
f 25/25/22 23/23/22 26/26/22
f 26/26/23 27/27/23 25/25/23
f 28/28/24 27/27/24 26/26/24
f 26/26/25 29/29/25 28/28/25
f 28/28/26 29/29/26 30/30/26
